<?xml version="1.0" encoding="UTF-8"?>
<!-- Generated by Pixelmator Pro 3.4.3 -->
<svg width="31" height="32" viewBox="0 0 31 32" xmlns="http://www.w3.org/2000/svg">
    <g id="Group-copy">
        <path id="Path" fill="none" stroke="#828080" stroke-linecap="round" stroke-linejoin="round" d="M 2.431387 18.088001 C 1.545252 18.620388 1.002266 19.57761 1 20.611374 L 1 25.392504 C 1.002266 26.426268 1.545252 27.383492 2.431387 27.915876 L 6.858358 30.572058 C 7.793726 31.134027 8.962845 31.134027 9.898211 30.572058 L 15.756571 27.059996 L 15.756571 18.943882 L 8.378285 14.516911 L 2.431387 18.088001 Z"/>
        <path id="path1" fill="none" stroke="#828080" stroke-linecap="round" stroke-linejoin="round" d="M 8.378285 23.370853 L 1.383671 19.16523"/>
        <path id="path2" fill="none" stroke="#828080" stroke-linecap="round" stroke-linejoin="round" d="M 8.378285 23.370853 L 15.756571 18.943882"/>
        <path id="path3" fill="none" stroke="#828080" stroke-linecap="round" stroke-linejoin="round" d="M 8.378285 23.370853 L 8.378285 31"/>
        <path id="path4" fill="none" stroke="#828080" stroke-linecap="round" stroke-linejoin="round" d="M 15.756571 18.943882 L 15.756571 27.059996 L 21.614929 30.572058 C 22.550297 31.134027 23.719416 31.134027 24.654783 30.572058 L 29.081755 27.915876 C 29.96789 27.383492 30.510876 26.426268 30.513142 25.392504 L 30.513142 20.611374 C 30.510876 19.57761 29.96789 18.620388 29.081755 18.088001 L 23.134855 14.516911 L 15.756571 18.943882 Z"/>
        <path id="path5" fill="none" stroke="#828080" stroke-linecap="round" stroke-linejoin="round" d="M 23.134855 23.370853 L 15.756571 18.943882"/>
        <path id="path6" fill="none" stroke="#828080" stroke-linecap="round" stroke-linejoin="round" d="M 23.134855 23.370853 L 30.129469 19.16523"/>
        <path id="path7" fill="none" stroke="#828080" stroke-linecap="round" stroke-linejoin="round" d="M 23.134855 23.370853 L 23.134855 31"/>
        <path id="path8" fill="none" stroke="#828080" stroke-linecap="round" stroke-linejoin="round" d="M 9.809672 5.544916 C 8.923537 6.077305 8.380551 7.034525 8.378285 8.068291 L 8.378285 14.516911 L 15.756571 18.943882 L 23.134855 14.516911 L 23.134855 8.068291 C 23.132589 7.034525 22.589605 6.077305 21.70347 5.544916 L 17.276497 2.888731 C 16.341131 2.326765 15.17201 2.326765 14.236644 2.888731 L 9.809672 5.544916 Z"/>
        <path id="path9" fill="none" stroke="#828080" stroke-linecap="round" stroke-linejoin="round" d="M 15.756571 10.827768 L 8.761956 6.622145"/>
        <path id="path10" fill="none" stroke="#828080" stroke-linecap="round" stroke-linejoin="round" d="M 15.756571 10.827768 L 22.751184 6.622145"/>
        <path id="path11" fill="none" stroke="#828080" stroke-linecap="round" stroke-linejoin="round" d="M 15.756571 18.943882 L 15.756571 10.827768"/>
    </g>
</svg>
