<?xml version="1.0" encoding="UTF-8"?>
<!-- Generated by Pixelmator Pro 3.4.3 -->
<svg width="31" height="32" viewBox="0 0 31 32" xmlns="http://www.w3.org/2000/svg">
    <g id="Group">
        <linearGradient id="linearGradient1" x1="2.004663" y1="9.764694" x2="29" y2="9.764694" gradientUnits="userSpaceOnUse">
            <stop offset="0" stop-color="#91ff24" stop-opacity="1"/>
            <stop offset="1" stop-color="#e0ff24" stop-opacity="1"/>
        </linearGradient>
        <path id="Path-copy-3" fill="none" stroke="url(#linearGradient1)" stroke-width="2.697768" stroke-linecap="round" stroke-linejoin="round" d="M 16.608416 3.263075 C 15.897277 2.9387 15.080408 2.9387 14.369269 3.263075 L 2.809334 8.52372 C 2.320267 8.739367 2.004663 9.22345 2.004663 9.757948 C 2.004663 10.29245 2.320267 10.776531 2.809334 10.992178 L 14.382758 16.266314 C 15.093897 16.590689 15.910765 16.590689 16.621904 16.266314 L 28.195328 11.005667 C 28.684395 10.79002 29 10.305937 29 9.771441 C 29 9.236937 28.684395 8.752855 28.195328 8.53721 Z"/>
        <linearGradient id="linearGradient2" x1="2" y1="19.88003" x2="28.977723" y2="19.88003" gradientUnits="userSpaceOnUse">
            <stop offset="0" stop-color="#91ff24" stop-opacity="1"/>
            <stop offset="1" stop-color="#e0ff24" stop-opacity="1"/>
        </linearGradient>
        <path id="Path-copy-2" fill="none" stroke="url(#linearGradient2)" stroke-width="2.697768" stroke-linecap="round" stroke-linejoin="round" d="M 2.000004 16.509113 C 1.9987 17.035948 2.304239 17.515327 2.782357 17.736597 L 14.382758 23.010733 C 15.090075 23.33102 15.901099 23.33102 16.608416 23.010733 L 28.181839 17.750086 C 28.669701 17.530804 28.981905 17.043972 28.97768 16.509113"/>
        <linearGradient id="linearGradient3" x1="2" y1="26.62445" x2="28.977723" y2="26.62445" gradientUnits="userSpaceOnUse">
            <stop offset="0" stop-color="#91ff24" stop-opacity="1"/>
            <stop offset="1" stop-color="#e0ff24" stop-opacity="1"/>
        </linearGradient>
        <path id="Path-copy" fill="none" stroke="url(#linearGradient3)" stroke-width="2.697768" stroke-linecap="round" stroke-linejoin="round" d="M 2.000004 23.253532 C 1.9987 23.780369 2.304239 24.259747 2.782357 24.481016 L 14.382758 29.755152 C 15.090075 30.075439 15.901099 30.075439 16.608416 29.755152 L 28.181839 24.494505 C 28.669701 24.275223 28.981905 23.788391 28.97768 23.253532"/>
    </g>
</svg>
